<svg xmlns="http://www.w3.org/2000/svg" width="27" height="27" viewBox="0 0 27 27">
  <g id="Group_2" data-name="Group 2" transform="translate(0.111 0.111)">
    <g id="notification.15_1" data-name="notification.15 1">
      <rect id="notification.15_1-2" data-name="notification.15 1" width="27" height="27" transform="translate(-0.111 -0.111)" fill="none"/>
      <path id="Vector" d="M8.94,0A6.672,6.672,0,0,0,2.273,6.667V9.878a5.309,5.309,0,0,1-.633,2.289L.362,14.289a2.132,2.132,0,0,0,1.2,3.256,23.246,23.246,0,0,0,14.744,0,2.225,2.225,0,0,0,1.2-3.256l-1.278-2.122a5.456,5.456,0,0,1-.622-2.289V6.667A6.686,6.686,0,0,0,8.94,0Z" transform="translate(4.416 3.233)" fill="none" stroke="#286ecd" stroke-linecap="round" stroke-width="1.5"/>
      <path id="Vector-2" data-name="Vector" d="M4.111,1.4a6.727,6.727,0,0,0-1.067-.222A7.5,7.5,0,0,0,0,1.4a2.209,2.209,0,0,1,4.111,0Z" transform="translate(11.3 2.155)" fill="none" stroke="#286ecd" stroke-linecap="round" stroke-linejoin="round" stroke-width="1.5"/>
      <path id="Vector-3" data-name="Vector" d="M6.667,0A3.343,3.343,0,0,1,3.333,3.333,3.345,3.345,0,0,1,.978,2.356,3.345,3.345,0,0,1,0,0" transform="translate(10.022 21.178)" fill="none" stroke="#286ecd" stroke-width="1.5"/>
    </g>
  </g>
</svg>
