<svg id="Group_46476" data-name="Group 46476" xmlns="http://www.w3.org/2000/svg" xmlns:xlink="http://www.w3.org/1999/xlink" width="30.723" height="28.102" viewBox="0 0 30.723 28.102">
  <defs>
    <clipPath id="clip-path">
      <rect id="Rectangle_27390" data-name="Rectangle 27390" width="30.723" height="28.102" fill="none"/>
    </clipPath>
  </defs>
  <g id="Group_46476-2" data-name="Group 46476" clip-path="url(#clip-path)">
    <path id="Path_42527" data-name="Path 42527" d="M243.982,6.2a.026.026,0,0,0-.025.016A8.458,8.458,0,0,0,243.177,9a16.182,16.182,0,0,0-.043,1.852.009.009,0,0,0,.009.009h.008l1.315-1.6a.718.718,0,1,1,1.109.912L242.428,14q-.013.017-.027,0l-3.154-3.838a.718.718,0,1,1,1.109-.911l1.315,1.6q.035.042.033-.012a15.381,15.381,0,0,1,.057-2.1,9.849,9.849,0,1,1,13.067,10.405.719.719,0,1,1-.481-1.356,8.412,8.412,0,1,0-9.484-13.033.011.011,0,0,0,0,.016h.007M250.8,23.537a.024.024,0,0,0,.028-.02h0a.026.026,0,0,0,0-.007" transform="translate(-230.673 -0.001)" fill="#363636"/>
    <path id="Path_42528" data-name="Path 42528" d="M349.268,172.4v-16.73h-7.937a.711.711,0,0,1-.714-.708h0a.7.7,0,0,1,.7-.683h9.345V172.4" transform="translate(-328.636 -148.852)" fill="#363636"/>
    <path id="Path_42529" data-name="Path 42529" d="M109.984,173.1V157.121a2.842,2.842,0,0,1,2.842-2.842h2.06a.711.711,0,0,1,.714.708h0a.7.7,0,0,1-.7.683h-2.077a1.451,1.451,0,0,0-1.451,1.451V173.1" transform="translate(-106.115 -148.852)" fill="#363636"/>
    <path id="Path_42530" data-name="Path 42530" d="M592.608,162.244h-4.46V154.28h3.3a3.017,3.017,0,0,1,3.017,3.017v3.09a1.856,1.856,0,0,1-1.856,1.856m-3.069-1.392h3.068a.47.47,0,0,0,.465-.465V157.3a1.625,1.625,0,0,0-1.625-1.625,1.908,1.908,0,0,0-1.908,1.908Z" transform="translate(-567.458 -148.853)" fill="#363636"/>
    <path id="Path_42531" data-name="Path 42531" d="M191.166,432.271h-8.076a.711.711,0,0,1-.714-.708h0a.7.7,0,0,1,.7-.683h8.076a.711.711,0,0,1,.714.708h0a.7.7,0,0,1-.7.683" transform="translate(-175.961 -415.722)" fill="#363636"/>
    <path id="Path_42532" data-name="Path 42532" d="M187.2,518.529h-4.186a.711.711,0,0,1-.714-.708h0a.7.7,0,0,1,.7-.683h4.186a.711.711,0,0,1,.714.708h0a.7.7,0,0,1-.7.683" transform="translate(-175.884 -498.946)" fill="#363636"/>
    <path id="Path_42533" data-name="Path 42533" d="M189.379,604.786h-6.368a.711.711,0,0,1-.714-.708h0a.7.7,0,0,1,.7-.683h6.367a.711.711,0,0,1,.714.708h0a.7.7,0,0,1-.7.683" transform="translate(-175.885 -582.169)" fill="#363636"/>
    <path id="Path_42534" data-name="Path 42534" d="M434.789,486.789a1.463,1.463,0,0,1,.359.777h.982v.606h-.991a1.657,1.657,0,0,1-1.648,1.392c.589.606,1.281,1.425,1.938,2.245h-1.4c-.486-.6-1.169-1.409-1.853-2.134v-.879h.53c.726,0,1.093-.248,1.2-.624h-1.724v-.606h1.69c-.136-.29-.461-.478-1.041-.478h-.649v-.905h3.952v.606Z" transform="translate(-416.974 -469.079)" fill="#363636"/>
    <path id="Path_42535" data-name="Path 42535" d="M20.633,667.267l0,1.192v1.078a.946.946,0,0,1-.849.961h-.167a1.159,1.159,0,0,1-1.056-1.164v-.875l-.013-.606h-.009L0,667.861v.025H0v1.655a2.353,2.353,0,0,0,.69,1.678,2.281,2.281,0,0,0,1.624.676H4.56v0l12.635-.008v.006h2.514c.052,0,.1,0,.155-.006h.117v-.011a2.343,2.343,0,0,0,2.043-2.337v-2.27Zm-16.98,3.24H2.313a.956.956,0,0,1-.944-.965v-.293l15.825-.008V670.5Z" transform="translate(0 -643.794)" fill="#363636"/>
  </g>
</svg>
