<svg xmlns="http://www.w3.org/2000/svg" width="28" height="28" viewBox="0 0 28 28">
  <g id="element-4.4_1" data-name="element-4.4 1" transform="translate(0.214 0.439)">
    <rect id="element-4.4_1-2" data-name="element-4.4 1" width="28" height="28" transform="translate(-0.214 -0.439)" fill="none"/>
    <path id="Vector" d="M2.843-.75H7.481a3.69,3.69,0,0,1,2.672.84,3.381,3.381,0,0,1,.921,2.6V4.76a3.381,3.381,0,0,1-.921,2.6,3.69,3.69,0,0,1-2.672.84H2.843a3.69,3.69,0,0,1-2.672-.84A3.381,3.381,0,0,1-.75,4.76V2.694A3.381,3.381,0,0,1,.171.09,3.69,3.69,0,0,1,2.843-.75ZM7.481,6.138a1.983,1.983,0,0,0,1.257-.279,1.569,1.569,0,0,0,.27-1.1V2.694a1.569,1.569,0,0,0-.27-1.1,1.983,1.983,0,0,0-1.257-.279H2.843A1.983,1.983,0,0,0,1.587,1.6a1.569,1.569,0,0,0-.27,1.1V4.76a1.569,1.569,0,0,0,.27,1.1,1.983,1.983,0,0,0,1.257.279ZM16.045-.75h4.638a3.69,3.69,0,0,1,2.672.84,3.381,3.381,0,0,1,.921,2.6V10.5a3.381,3.381,0,0,1-.921,2.6,3.69,3.69,0,0,1-2.672.84H16.045a3.69,3.69,0,0,1-2.672-.84,3.381,3.381,0,0,1-.921-2.6V2.694a3.381,3.381,0,0,1,.921-2.6A3.69,3.69,0,0,1,16.045-.75Zm4.638,12.628a1.983,1.983,0,0,0,1.257-.279,1.569,1.569,0,0,0,.27-1.1V2.694a1.569,1.569,0,0,0-.27-1.1,1.983,1.983,0,0,0-1.257-.279H16.045a1.983,1.983,0,0,0-1.257.279,1.569,1.569,0,0,0-.27,1.1V10.5a1.569,1.569,0,0,0,.27,1.1,1.983,1.983,0,0,0,1.257.279ZM2.843,9.582H7.481a3.69,3.69,0,0,1,2.672.84,3.381,3.381,0,0,1,.921,2.6v7.806a3.381,3.381,0,0,1-.921,2.6,3.69,3.69,0,0,1-2.672.84H2.843a3.69,3.69,0,0,1-2.672-.84,3.381,3.381,0,0,1-.921-2.6V13.026a3.381,3.381,0,0,1,.921-2.6A3.69,3.69,0,0,1,2.843,9.582ZM7.481,22.209a1.983,1.983,0,0,0,1.257-.279,1.569,1.569,0,0,0,.27-1.1V13.026a1.569,1.569,0,0,0-.27-1.1,1.983,1.983,0,0,0-1.257-.279H2.843a1.983,1.983,0,0,0-1.257.279,1.569,1.569,0,0,0-.27,1.1v7.806a1.569,1.569,0,0,0,.27,1.1,1.983,1.983,0,0,0,1.257.279Zm8.564-6.888h4.638a3.69,3.69,0,0,1,2.672.84,3.381,3.381,0,0,1,.921,2.6v2.066a3.381,3.381,0,0,1-.921,2.6,3.69,3.69,0,0,1-2.672.84H16.045a3.69,3.69,0,0,1-2.672-.84,3.381,3.381,0,0,1-.921-2.6V18.765a3.381,3.381,0,0,1,.921-2.6A3.69,3.69,0,0,1,16.045,15.321Zm4.638,6.888a1.983,1.983,0,0,0,1.257-.279,1.569,1.569,0,0,0,.27-1.1V18.765a1.569,1.569,0,0,0-.27-1.1,1.983,1.983,0,0,0-1.257-.279H16.045a1.983,1.983,0,0,0-1.257.279,1.569,1.569,0,0,0-.27,1.1v2.066a1.569,1.569,0,0,0,.27,1.1,1.983,1.983,0,0,0,1.257.279Z" transform="translate(2.013 2.013)" fill="#1a9ced" stroke="#fff" stroke-linecap="round" stroke-width="0.4"/>
  </g>
</svg>
