<svg xmlns="http://www.w3.org/2000/svg" width="28.099" height="28.102" viewBox="0 0 28.099 28.102">
  <g id="Group_46480" data-name="Group 46480" transform="translate(0 0)">
    <g id="Group_46481" data-name="Group 46481">
      <path id="Path_42552" data-name="Path 42552" d="M4.206,0A4.212,4.212,0,0,0,0,4.178v19.6c0,.213.006.38.017.5a4.2,4.2,0,0,0,3.83,3.8h0c.115.01.285.015.506.015H15.589a1.614,1.614,0,0,0,.368-.03.83.83,0,0,0-.112-1.619c-.162-.013-.327-.017-.489-.014H4.387a4.033,4.033,0,0,1-.563-.03H3.816a2.533,2.533,0,0,1-2.151-2.588V4.419A4.524,4.524,0,0,1,1.69,3.86V3.851A2.545,2.545,0,0,1,3.843,1.694h.012a4.7,4.7,0,0,1,.557-.023H23.728a3.752,3.752,0,0,1,.566.032H24.3a2.523,2.523,0,0,1,1.857,1.353l0,0a2.8,2.8,0,0,1,.276,1.293V15.145a1.559,1.559,0,0,0,.03.349.829.829,0,0,0,1.626-.148c0-.077.007-.147.007-.208V4.424c0-.233,0-.4-.011-.505A4.2,4.2,0,0,0,23.778,0H4.206" transform="translate(0 0)" fill="#363636"/>
      <path id="Path_42553" data-name="Path 42553" d="M139.589,159.533a1.116,1.116,0,0,1-1.1-1.132c0-.014,0-.028,0-.041a1.1,1.1,0,0,1,.816-1.02,1.684,1.684,0,0,1,.408-.046q.5-.008,1,0a1.1,1.1,0,0,1,1,.612,1.115,1.115,0,0,1-.927,1.613c-.394.038-.687.012-1.2.014" transform="translate(-133.173 -151.253)" fill="#363636"/>
      <path id="Path_42554" data-name="Path 42554" d="M285.7,157.448h9.615a1.119,1.119,0,1,1,0,2.238H285.7a1.119,1.119,0,1,1,0-2.238" transform="translate(-273.658 -151.405)" fill="#363636" stroke="#fff" stroke-width="0.2"/>
      <path id="Path_42555" data-name="Path 42555" d="M139.761,334.71a1.123,1.123,0,0,1-.731-1.963,1.225,1.225,0,0,1,.9-.271h.925a1.132,1.132,0,0,1,.657.2,1.116,1.116,0,0,1-.377,2,2.518,2.518,0,0,1-.523.038q-.429,0-.855-.005" transform="translate(-133.33 -319.709)" fill="#363636"/>
      <path id="Path_42556" data-name="Path 42556" d="M285.645,332.669h9.622a1.118,1.118,0,1,1,0,2.236h-9.622a1.118,1.118,0,1,1,0-2.236" transform="translate(-273.607 -319.902)" fill="#363636" stroke="#fff" stroke-width="0.2"/>
      <path id="Path_42557" data-name="Path 42557" d="M459.705,454.694l-.007-.007c-.447-.458-.913-.92-1.363-1.367l-.33-.328-.013-.013a.321.321,0,0,1-.049-.351l.008-.017.011-.016a4.772,4.772,0,0,0,.754-2.154,4.751,4.751,0,1,0-2.315,3.646.308.308,0,0,1,.351.015l.02.017a1.4,1.4,0,0,1,.107.11c.513.515,1.03,1.032,1.538,1.537l0,.005a4.788,4.788,0,0,0,.35.331.835.835,0,0,0,1.216-1.063,1.893,1.893,0,0,0-.283-.343m-5.714-1.62a3.084,3.084,0,0,1,0-6.168h0a3.084,3.084,0,0,1,3.084,3.061h0v.023a3.087,3.087,0,0,1-3.084,3.084" transform="translate(-431.99 -428.15)" fill="#363636"/>
      <path id="Path_42558" data-name="Path 42558" d="M138.953,519.922a1.122,1.122,0,0,1,.435-1.917,2.2,2.2,0,0,1,.5-.041h.926a1.116,1.116,0,0,1,.014,2.232q-.895.016-1.213,0a1.054,1.054,0,0,1-.661-.273" transform="translate(-133.258 -498.083)" fill="#363636"/>
      <path id="Path_42559" data-name="Path 42559" d="M284.756,519.857a1.111,1.111,0,0,1,.469-1.889,2.039,2.039,0,0,1,.476-.039h1.083a3.083,3.083,0,0,1,.525.029,1.122,1.122,0,0,1,.521,1.928,1.308,1.308,0,0,1-.993.284h-1.264a1.152,1.152,0,0,1-.816-.312" transform="translate(-273.486 -498.051)" fill="#363636"/>
    </g>
  </g>
</svg>
