<svg xmlns="http://www.w3.org/2000/svg" xmlns:xlink="http://www.w3.org/1999/xlink" width="28.596" height="28.553" viewBox="0 0 28.596 28.553">
  <defs>
    <clipPath id="clip-path">
      <rect id="Rectangle_27397" data-name="Rectangle 27397" width="28.596" height="28.553" transform="translate(0 0)" fill="none"/>
    </clipPath>
  </defs>
  <g id="Group_46489" data-name="Group 46489" transform="translate(0 0)">
    <g id="Group_46488" data-name="Group 46488" clip-path="url(#clip-path)">
      <path id="Path_42576" data-name="Path 42576" d="M17.512.412A14.27,14.27,0,0,0,.422,11.076c-.107.455-.17.932-.231,1.394-.032.239-.061.463-.1.688a4.861,4.861,0,0,0-.045.609v1.2a3.309,3.309,0,0,0,.026.422l.033.27c.045.364.09.739.159,1.105a14.1,14.1,0,0,0,6.188,9.412A13.506,13.506,0,0,0,13.792,28.5h.664a13.459,13.459,0,0,0,2.073-.16l.224-.036a13.935,13.935,0,0,0,8.289-4.685,13.8,13.8,0,0,0,3.488-9.868A14.3,14.3,0,0,0,17.512.412M14.33,27.143a12.858,12.858,0,0,1-.063-25.716h.027a12.861,12.861,0,0,1,.036,25.716" fill="#363636"/>
      <path id="Path_42577" data-name="Path 42577" d="M17.512.412A14.27,14.27,0,0,0,.422,11.076c-.107.455-.17.932-.231,1.394-.032.239-.061.463-.1.688a4.861,4.861,0,0,0-.045.609v1.2a3.309,3.309,0,0,0,.026.422l.033.27c.045.364.09.739.159,1.105a14.1,14.1,0,0,0,6.188,9.412A13.506,13.506,0,0,0,13.792,28.5h.664a13.459,13.459,0,0,0,2.073-.16l.224-.036a13.935,13.935,0,0,0,8.289-4.685,13.8,13.8,0,0,0,3.488-9.868A14.3,14.3,0,0,0,17.512.412ZM14.33,27.143a12.858,12.858,0,0,1-.063-25.716h.027a12.861,12.861,0,0,1,.036,25.716Z" fill="none" stroke="#363636" stroke-width="0.1"/>
      <path id="Path_42578" data-name="Path 42578" d="M16.3,7.642a5.462,5.462,0,0,0-2.052-.463l-.368.009a4.291,4.291,0,0,0-1.643.342A2.627,2.627,0,0,0,10.6,9.183a.888.888,0,0,0,.442,1.153l.033.015a.737.737,0,0,0,1-.286l.059-.11a2.388,2.388,0,0,1,3.1-.73,1.337,1.337,0,0,1,.744,1.3,1.924,1.924,0,0,1-.683,1.364c-.3.272-.613.534-.938.777A3.336,3.336,0,0,0,13,15.561a1.211,1.211,0,0,0,.307.987l.03.023a.747.747,0,0,0,.326.078.5.5,0,0,0,.067,0,2.924,2.924,0,0,0,.494-.046.9.9,0,0,0,.141-.035.491.491,0,0,0,.406-.478c.01-.237.01-.421.01-.6a2.285,2.285,0,0,1,.742-1.646c.112-.1.218-.2.338-.292l.154-.13a5.9,5.9,0,0,0,1.579-1.793,2.813,2.813,0,0,0,.2-.4A2.751,2.751,0,0,0,16.3,7.642" fill="#363636"/>
      <path id="Path_42579" data-name="Path 42579" d="M16.3,7.642a5.462,5.462,0,0,0-2.052-.463l-.368.009a4.291,4.291,0,0,0-1.643.342A2.627,2.627,0,0,0,10.6,9.183a.888.888,0,0,0,.442,1.153l.033.015a.737.737,0,0,0,1-.286l.059-.11a2.388,2.388,0,0,1,3.1-.73,1.337,1.337,0,0,1,.744,1.3,1.924,1.924,0,0,1-.683,1.364c-.3.272-.613.534-.938.777A3.336,3.336,0,0,0,13,15.561a1.211,1.211,0,0,0,.307.987l.03.023a.747.747,0,0,0,.326.078.5.5,0,0,0,.067,0,2.924,2.924,0,0,0,.494-.046.9.9,0,0,0,.141-.035.491.491,0,0,0,.406-.478c.01-.237.01-.421.01-.6a2.285,2.285,0,0,1,.742-1.646c.112-.1.218-.2.338-.292l.154-.13a5.9,5.9,0,0,0,1.579-1.793,2.813,2.813,0,0,0,.2-.4A2.751,2.751,0,0,0,16.3,7.642Z" fill="none" stroke="#363636" stroke-width="0.1"/>
      <path id="Path_42580" data-name="Path 42580" d="M13.867,18.37a1.256,1.256,0,0,0-.009,2.512h.007a1.256,1.256,0,1,0,0-2.512" fill="#363636"/>
      <path id="Path_42581" data-name="Path 42581" d="M13.867,18.37a1.256,1.256,0,0,0-.009,2.512h.007a1.256,1.256,0,1,0,0-2.512Z" fill="none" stroke="#363636" stroke-width="0.1"/>
    </g>
  </g>
</svg>
