<svg xmlns="http://www.w3.org/2000/svg" width="28.38" height="28.392" viewBox="0 0 28.38 28.392">
  <g id="Group_46468" data-name="Group 46468" transform="translate(-8589.497 -1205.5)">
    <path id="Path_42261" data-name="Path 42261" d="M324.625,166.883a2.324,2.324,0,0,1-2.1-1.916,3.644,3.644,0,0,1-.033-.568q0-11.8,0-23.593a2.316,2.316,0,0,1,1.918-2.272,3.534,3.534,0,0,1,.567-.034h18.105a3.79,3.79,0,0,1,.568.032,2.308,2.308,0,0,1,1.925,2,5.649,5.649,0,0,1,.019.569q0,6.654,0,13.31a.018.018,0,0,0,.016.019,6.27,6.27,0,0,1-1.19,12.455,4.926,4.926,0,0,0-.763-.023,3.111,3.111,0,0,1-.385.03H325.195Q324.729,166.891,324.625,166.883Zm15.409-1.977a6.388,6.388,0,0,1-1.43-2.5,6.274,6.274,0,0,1,5-7.982.018.018,0,0,0,.015-.018q0-6.783,0-13.565c0-.289-.2-.365-.453-.365H324.883c-.333,0-.408.158-.408.475v23.516c0,.365.144.443.5.443h15.055a0,0,0,0,0,0,0A0,0,0,0,0,340.034,164.906Zm8.865-4.287a4.288,4.288,0,1,0-4.288,4.288A4.289,4.289,0,0,0,348.9,160.618Z" transform="translate(8267 1067)" fill="#414141"/>
    <rect id="Rectangle_27372" data-name="Rectangle 27372" width="13.847" height="1.978" rx="0.989" transform="translate(8594.121 1210.794) rotate(-0.1)" fill="#414141"/>
    <rect id="Rectangle_27373" data-name="Rectangle 27373" width="13.851" height="1.977" rx="0.988" transform="translate(8594.121 1216.063)" fill="#414141"/>
    <rect id="Rectangle_27374" data-name="Rectangle 27374" width="10.548" height="1.976" rx="0.988" transform="translate(8594.122 1221.354) rotate(-0.1)" fill="#414141"/>
    <path id="Path_42264" data-name="Path 42264" d="M1066.479,791.22c.316.3.624.614.927.927a1.615,1.615,0,0,1,.269.338.988.988,0,0,1-1.1,1.414,1.006,1.006,0,0,1-.486-.273q-.621-.614-1.235-1.234a1.055,1.055,0,0,1-.366-.852q0-1.156,0-2.313a2.189,2.189,0,0,1,.044-.536.986.986,0,0,1,1.785-.23,1.061,1.061,0,0,1,.148.56q0,1.086,0,2.173A.035.035,0,0,0,1066.479,791.22Z" transform="translate(7546.132 436.001)" fill="#414141"/>
    <rect id="Rectangle_27375" data-name="Rectangle 27375" width="9.224" height="1.982" rx="0.991" transform="translate(8594.126 1226.619) rotate(0.1)" fill="#414141"/>
  </g>
</svg>
