<svg xmlns="http://www.w3.org/2000/svg" width="24.613" height="28.013" viewBox="0 0 24.613 28.013">
  <g id="Group_46465" data-name="Group 46465" transform="translate(-9732.968 2246.52)">
    <path id="Path_42249" data-name="Path 42249" d="M531.693,200.952q-.6-.157-1.193-.3c-.422-.1-.707-.2-.842-.6a1.411,1.411,0,0,1-.047-.42q0-1.446,0-2.892a1.752,1.752,0,0,1,.05-.5c.133-.4.423-.488.838-.592l1.191-.3a.032.032,0,0,0,.024-.022,9.091,9.091,0,0,1,.512-1.238.029.029,0,0,0,0-.029l-.742-1.237a.819.819,0,0,1-.062-.832,1.571,1.571,0,0,1,.291-.359l2.042-2.042a1.616,1.616,0,0,1,.371-.3c.362-.177.631-.05.983.159s.72.43,1.079.647a.029.029,0,0,0,.03,0,9.683,9.683,0,0,1,1.238-.511.033.033,0,0,0,.022-.024q.131-.529.263-1.055c.124-.494.184-.827.643-.977a1.352,1.352,0,0,1,.4-.045q1.484,0,2.967,0a1.429,1.429,0,0,1,.423.046.824.824,0,0,1,.557.635l.347,1.4a.031.031,0,0,0,.021.023,9.132,9.132,0,0,1,1.238.512.03.03,0,0,0,.031,0l.913-.548c.439-.262.726-.469,1.159-.25a1.662,1.662,0,0,1,.369.3l1.983,1.984a1.9,1.9,0,0,1,.347.421.917.917,0,0,1-.148.954q-.329.553-.662,1.1a.03.03,0,0,0,0,.031,8.611,8.611,0,0,1,.51,1.237.028.028,0,0,0,.022.02q.62.152,1.238.31c.63.161.845.384.845,1.05q0,1.528,0,3.056a.85.85,0,0,1-.75.855q-.665.172-1.333.336a.03.03,0,0,0-.023.021,9.089,9.089,0,0,1-.51,1.236.028.028,0,0,0,0,.029q.374.624.742,1.244a.817.817,0,0,1,.065.819,1.932,1.932,0,0,1-.348.421l-2.022,2.021a.892.892,0,0,1-.721.347.015.015,0,0,0-.017.017c-.012.891-.04,1.8,0,2.691a.031.031,0,0,0,.017.027l2.433,1.354a.032.032,0,0,0,.036,0,2.455,2.455,0,1,1-.818,1.465.024.024,0,0,0-.013-.027q-1.371-.761-2.739-1.524a.874.874,0,0,1-.562-.9q0-2,0-4a.009.009,0,0,0,0-.008.009.009,0,0,0-.009,0,9.572,9.572,0,0,1-1.26.525.049.049,0,0,0-.032.035q-.157.652-.327,1.3a.87.87,0,0,1-1,.767q-.3,0-.6,0a.042.042,0,0,0-.043.042V210.7a.022.022,0,0,0,.016.022,2.458,2.458,0,1,1-1.672,0,.02.02,0,0,0,.014-.02v-1.858a.019.019,0,0,0-.021-.021,4.155,4.155,0,0,1-1.055-.047c-.4-.13-.5-.414-.6-.83s-.2-.8-.3-1.192a.051.051,0,0,0-.036-.039,9.559,9.559,0,0,1-1.216-.5q-.055-.027-.055.034,0,2.032,0,4.04a.875.875,0,0,1-.563.809q-1.37.765-2.743,1.525a.023.023,0,0,0-.013.026,2.457,2.457,0,1,1-.812-1.463.025.025,0,0,0,.029,0l2.445-1.356a.028.028,0,0,0,.015-.026V207.1a.015.015,0,0,0,0-.012.016.016,0,0,0-.012,0,.871.871,0,0,1-.721-.342l-2.052-2.052a1.758,1.758,0,0,1-.326-.4.914.914,0,0,1,.15-.952q.33-.553.661-1.1a.028.028,0,0,0,0-.029,8.941,8.941,0,0,1-.511-1.236A.03.03,0,0,0,531.693,200.952Zm-.417-1.8q.507.125,1.013.253c.471.12.745.229.874.695a8.876,8.876,0,0,0,.695,1.688.859.859,0,0,1-.018.941q-.318.539-.643,1.076a.026.026,0,0,0,0,.032l1.388,1.388a.021.021,0,0,0,.028,0l1.145-.686a.871.871,0,0,1,.928.053,8.365,8.365,0,0,0,1.585.655.853.853,0,0,1,.689.685q.157.613.305,1.218a.032.032,0,0,0,.031.025l1.955,0a.024.024,0,0,0,.025-.02q.154-.619.307-1.238a.831.831,0,0,1,.6-.648,8.135,8.135,0,0,0,1.715-.7c.5-.278.765-.1,1.249.191l.78.468a.022.022,0,0,0,.029,0l1.388-1.388a.026.026,0,0,0,0-.032q-.351-.582-.7-1.163a.821.821,0,0,1,.023-.827,9.975,9.975,0,0,0,.7-1.672.846.846,0,0,1,.646-.674l1.26-.316a.018.018,0,0,0,.015-.019v-1.966a.029.029,0,0,0-.024-.031q-.581-.14-1.153-.289c-.616-.16-.665-.438-.841-.985a7.635,7.635,0,0,0-.54-1.269.884.884,0,0,1-.032-1.026q.318-.543.647-1.081a.02.02,0,0,0,0-.027l-1.391-1.392a.021.021,0,0,0-.028,0l-.9.539c-.423.253-.693.371-1.125.122a7,7,0,0,0-1.319-.576c-.5-.164-.849-.215-1-.774q-.165-.615-.311-1.237a.018.018,0,0,0-.02-.016h-1.976a.02.02,0,0,0-.021.017q-.209.867-.32,1.283c-.136.507-.535.579-.976.717a7.032,7.032,0,0,0-1.341.595.854.854,0,0,1-.916-.011l-1.1-.659a.02.02,0,0,0-.027,0L533.2,192.46a.02.02,0,0,0,0,.028q.548.9.683,1.138a.888.888,0,0,1-.065.962,8,8,0,0,0-.617,1.491c-.183.611-.386.675-1.019.836q-.455.116-.914.225a.013.013,0,0,0-.01.013v1.983a.014.014,0,0,0,.013.016Zm-.031,13.876a.816.816,0,1,0-.816.816A.816.816,0,0,0,531.245,213.03Zm9.847,0a.816.816,0,1,0-.816.816A.816.816,0,0,0,541.092,213.03Zm9.847,0a.816.816,0,1,0-.816.816A.816.816,0,0,0,550.939,213.03Z" transform="translate(9205 -2434)" fill="#414141"/>
    <path id="Path_42251" data-name="Path 42251" d="M767.043,372.667a4.646,4.646,0,1,1-4.647-4.647A4.647,4.647,0,0,1,767.043,372.667Zm-1.642,0a3,3,0,1,0-3,3A3,3,0,0,0,765.4,372.667Z" transform="translate(8982.881 -2608.52)" fill="#414141"/>
  </g>
</svg>
