<svg xmlns="http://www.w3.org/2000/svg" width="28.133" height="28.126" viewBox="0 0 28.133 28.126">
  <g id="Group_46464" data-name="Group 46464" transform="translate(-10382 -891.73)">
    <path id="Path_42233" data-name="Path 42233" d="M305.056,132.344a.893.893,0,0,1-.841-.609,1.472,1.472,0,0,1-.045-.427q0-3.055,0-6.109a2.836,2.836,0,0,0-.045-.607,1.465,1.465,0,0,0-1.451-1.1q-6.625,0-13.251,0a2.545,2.545,0,0,0-.563.045,1.474,1.474,0,0,0-1.1,1.459q0,8.92,0,17.84a3.255,3.255,0,0,0,.038.608,1.466,1.466,0,0,0,1.458,1.14l6.024,0a3.6,3.6,0,0,1,.609.029.878.878,0,0,1,0,1.7,3.227,3.227,0,0,1-.566.03q-2.97.006-5.94,0a4.434,4.434,0,0,1-.609-.034,3.24,3.24,0,0,1-2.734-2.745,4.554,4.554,0,0,1-.031-.609q0-8.878,0-17.757,0-.42.021-.61a3.23,3.23,0,0,1,2.737-2.822,4.223,4.223,0,0,1,.609-.034h13.147a4.953,4.953,0,0,1,.61.028,3.229,3.229,0,0,1,2.77,2.724,4.362,4.362,0,0,1,.033.609q0,3.1,0,6.2a1.611,1.611,0,0,1-.042.441A.887.887,0,0,1,305.056,132.344Z" transform="translate(10096 770)" fill="#414141"/>
    <path id="Path_42235" data-name="Path 42235" d="M540.311,239.21a2.341,2.341,0,1,1-2.341-2.34A2.341,2.341,0,0,1,540.311,239.21Zm-1.758,0a.582.582,0,1,0-.582.582A.582.582,0,0,0,538.553,239.211Z" transform="translate(9853.993 658.376)" fill="#414141"/>
    <path id="Path_42236" data-name="Path 42236" d="M466.443,433.192a.969.969,0,0,1-.261-.658q0-.472,0-.624a1.471,1.471,0,0,0-1.13-1.368,3.245,3.245,0,0,0-.608-.039h-2.458a1.623,1.623,0,0,0-1.021.253,1.473,1.473,0,0,0-.646,1.3,1.407,1.407,0,0,1-.257,1.128.88.88,0,0,1-1.462-.4,3.158,3.158,0,0,1-.029-.814,3.219,3.219,0,0,1,2.755-3.188,4.26,4.26,0,0,1,.609-.034H464.8a2.952,2.952,0,0,1,1.176.262,3.217,3.217,0,0,1,1.934,2.529,7.476,7.476,0,0,1,.029.918,1.211,1.211,0,0,1-.04.35.863.863,0,0,1-.932.614A.965.965,0,0,1,466.443,433.192Z" transform="translate(9928.713 472.359)" fill="#414141"/>
    <path id="Path_42238" data-name="Path 42238" d="M708.962,554.843a7.618,7.618,0,1,1,4.2,3.9A7.63,7.63,0,0,1,708.962,554.843Zm12.763-3.221a5.859,5.859,0,1,0-5.859,5.859,5.859,5.859,0,0,0,5.859-5.859Z" transform="translate(9686.649 360.616)" fill="#414141"/>
    <rect id="Rectangle_27368" data-name="Rectangle 27368" width="7.019" height="1.751" rx="0.876" transform="translate(10386.694 907.553)" fill="#414141"/>
    <path id="Path_42240" data-name="Path 42240" d="M814.378,682.286a2.031,2.031,0,0,1-.285-.319.874.874,0,0,1,1.149-1.239,1.586,1.586,0,0,1,.336.276l1.546,1.546a.015.015,0,0,0,.011,0,.015.015,0,0,0,.011-.005l3.242-3.7a3.726,3.726,0,0,1,.385-.4.9.9,0,0,1,1.02,0,.876.876,0,0,1,.287,1.071,1.677,1.677,0,0,1-.261.365l-3.918,4.476a.9.9,0,0,1-1.121.273,1.578,1.578,0,0,1-.335-.275Q815.41,683.321,814.378,682.286Z" transform="translate(9584.165 230.443)" fill="#414141"/>
    <rect id="Rectangle_27369" data-name="Rectangle 27369" width="5.841" height="1.752" rx="0.876" transform="translate(10386.695 911.076) rotate(-0.1)" fill="#414141"/>
  </g>
</svg>
