<svg id="Group_46472" data-name="Group 46472" xmlns="http://www.w3.org/2000/svg" xmlns:xlink="http://www.w3.org/1999/xlink" width="28.596" height="28.102" viewBox="0 0 28.596 28.102">
  <defs>
    <clipPath id="clip-path">
      <rect id="Rectangle_27389" data-name="Rectangle 27389" width="28.596" height="28.102" fill="#363636"/>
    </clipPath>
  </defs>
  <g id="Group_46474" data-name="Group 46474" clip-path="url(#clip-path)">
    <path id="Path_42520" data-name="Path 42520" d="M116.143,6.6a.028.028,0,0,0-.027.017,9.007,9.007,0,0,0-.83,2.962,17.233,17.233,0,0,0-.046,1.972.01.01,0,0,0,.011.01.01.01,0,0,0,.007,0l1.4-1.709a.764.764,0,0,1,1.181.971L114.488,14.9q-.014.018-.029,0L111.1,10.813a.764.764,0,0,1,1.181-.97l1.4,1.7q.037.045.035-.013a16.382,16.382,0,0,1,.061-2.236,10.489,10.489,0,1,1,13.916,11.081.766.766,0,0,1-.512-1.444,8.958,8.958,0,1,0-10.1-13.879.012.012,0,0,0,0,.017l.007,0m6.318,19.991a.026.026,0,0,0,.03-.022.027.027,0,0,0,0-.007" transform="translate(-106.09 0)" fill="#363636"/>
    <path id="Path_42521" data-name="Path 42521" d="M16.307,154.792H3.028A3.028,3.028,0,0,1,0,151.765V135.493a3.027,3.027,0,0,1,3.027-3.027H5.221a.757.757,0,0,1,.76.755.741.741,0,0,1-.741.727H3.028a1.545,1.545,0,0,0-1.545,1.545v16.271a1.545,1.545,0,0,0,1.545,1.545H16.307a1.545,1.545,0,0,0,1.545-1.545V133.948H9.4a.757.757,0,0,1-.76-.755.741.741,0,0,1,.741-.727h9.952v19.3a3.027,3.027,0,0,1-3.027,3.027" transform="translate(0 -126.691)" fill="#363636"/>
    <path id="Path_42522" data-name="Path 42522" d="M415.6,140.945h-4.75v-8.481h3.515a3.213,3.213,0,0,1,3.213,3.213v3.291a1.977,1.977,0,0,1-1.977,1.977m-3.268-1.482H415.6a.5.5,0,0,0,.495-.495v-3.291a1.731,1.731,0,0,0-1.731-1.731,2.032,2.032,0,0,0-2.032,2.032Z" transform="translate(-392.937 -126.689)" fill="#363636"/>
    <path id="Path_42523" data-name="Path 42523" d="M71.485,371.614h-8.6a.757.757,0,0,1-.76-.755.741.741,0,0,1,.741-.727h8.6a.757.757,0,0,1,.76.755.741.741,0,0,1-.741.727" transform="translate(-59.413 -353.995)" fill="#363636"/>
    <path id="Path_42524" data-name="Path 42524" d="M67.341,459.9H62.883a.757.757,0,0,1-.76-.755.741.741,0,0,1,.741-.727h4.458a.757.757,0,0,1,.76.755.741.741,0,0,1-.741.727" transform="translate(-59.414 -438.428)" fill="#363636"/>
    <path id="Path_42525" data-name="Path 42525" d="M69.663,537.016H62.882a.757.757,0,0,1-.76-.755.741.741,0,0,1,.741-.727h6.781a.757.757,0,0,1,.76.755.741.741,0,0,1-.741.727" transform="translate(-59.413 -512.185)" fill="#363636"/>
    <path id="Path_42526" data-name="Path 42526" d="M279.618,435.487a1.558,1.558,0,0,1,.382.827h1.046v.645h-1.055a1.765,1.765,0,0,1-1.755,1.482c.627.645,1.364,1.518,2.064,2.391h-1.491c-.518-.636-1.245-1.5-1.973-2.273v-.936h.564c.773,0,1.164-.264,1.273-.664h-1.836v-.645h1.8c-.145-.309-.491-.509-1.109-.509h-.691v-.964h4.209v.645Z" transform="translate(-264.766 -415.883)" fill="#363636"/>
  </g>
</svg>
