<svg xmlns="http://www.w3.org/2000/svg" width="28.339" height="27.4" viewBox="0 0 28.339 27.4">
  <g id="Group_46471" data-name="Group 46471" transform="translate(-11427.478 -645.32)">
    <path id="Union_14" data-name="Union 14" d="M2426.611,846.813h-5.829a3.221,3.221,0,0,1-3.195-2.78,5.116,5.116,0,0,1-.033-.665c0-.639,0-1.289,0-1.931a1.567,1.567,0,0,1,.058-.48c.205-.593.737-.593,1.125-.593h16.62a1.943,1.943,0,0,1,.637.063.9.9,0,0,1,.579.966c0,.658,0,1.324,0,1.978a2.554,2.554,0,0,0,.048.58,1.363,1.363,0,0,0,1.366,1.058,1.388,1.388,0,0,0,1.439-1.424c0-6.8,0-13.79,0-20.76a3.53,3.53,0,0,1,.329-1.614h-1.672l-14.948,0a1.423,1.423,0,0,0-1.422,1.076,2.561,2.561,0,0,0-.041.55v15.189a2.487,2.487,0,0,1-.014.32.871.871,0,0,1-.884.778.881.881,0,0,1-.9-.9q0-7.742,0-15.484a3.223,3.223,0,0,1,3.333-3.332h3.389c5.244,0,10.567,0,15.819.007l.338,0a3.234,3.234,0,0,1,3.127,3.231c.006.736.005,1.482,0,2.218a.908.908,0,0,1-1.027.99h-2.066a.9.9,0,0,1-1.027-.871v-.032a.866.866,0,0,1,.586-.828,2.049,2.049,0,0,1,.6-.059h1.14c0-.386,0-.777,0-1.164a3.242,3.242,0,0,0-.038-.594,1.429,1.429,0,0,0-1.144-1.081,1.63,1.63,0,0,0-.246-.02,1.423,1.423,0,0,0-1.431,1.445q0,1.16,0,2.317,0,9.126,0,18.251c0,.323-.005.538-.017.658a3.219,3.219,0,0,1-2.73,2.9,4.794,4.794,0,0,1-.667.035Zm-7.261-3.4a2.422,2.422,0,0,0,.045.544,1.442,1.442,0,0,0,1.443,1.066h14.276a3.631,3.631,0,0,1-.332-1.669v-1.2h-15.437C2419.344,842.575,2419.346,843,2419.349,843.413Zm15.429-7.97a.921.921,0,1,1,.922.9A.911.911,0,0,1,2434.778,835.442Zm-9.3.895a.895.895,0,0,1,0-1.789h6.748a.895.895,0,1,1,0,1.789Zm10.19-3.483-10.238-.018a.9.9,0,1,1,0-1.79l10.238.018a.9.9,0,0,1,0,1.79Zm0-3.5-10.238-.018a.9.9,0,1,1,0-1.79l10.238.018a.9.9,0,0,1,0,1.79Zm-.99-3.5-8.257-.014a.9.9,0,0,1,0-1.79l8.256.014a.9.9,0,0,1,0,1.79Z" transform="translate(9009.927 -174.093)" fill="#414141"/>
  </g>
</svg>
