<svg id="Group_46312" data-name="Group 46312" xmlns="http://www.w3.org/2000/svg" xmlns:xlink="http://www.w3.org/1999/xlink" width="206.227" height="33.309" viewBox="0 0 206.227 33.309">
  <defs>
    <clipPath id="clip-path">
      <rect id="Rectangle_27305" data-name="Rectangle 27305" width="206.227" height="33.309" fill="none"/>
    </clipPath>
  </defs>
  <g id="Group_46299" data-name="Group 46299" transform="translate(0 0)" clip-path="url(#clip-path)">
    <path id="Path_42004" data-name="Path 42004" d="M29.218,7.258c-1.2,0-1.689.456-1.689,1.581V9.3c0,1.16.353,1.51,1.863,1.863l8.326,1.826c4.917,1.054,6.569,2.741,6.569,6.674v1.757c0,3.795-2.529,5.867-7.235,5.867H21.17l.458-3.268a1.448,1.448,0,0,1,1.685-1.4H36.736c1.227,0,1.791-.458,1.791-1.616v-.983c0-1.195-.386-1.581-1.969-1.934l-8.046-1.755c-4.953-1.089-6.743-2.917-6.743-6.851V8.489c0-3.83,2.527-5.9,7.235-5.9h14.37l-.492,3.268a1.449,1.449,0,0,1-1.687,1.4Z" transform="translate(18.112 2.213)" fill="#006ceb"/>
    <path id="Path_42005" data-name="Path 42005" d="M35.049,18.289c0-3.513,2-5.268,5.936-5.268h6.886V12c.035-1.3-.562-1.791-1.828-1.791h-7.9a1.406,1.406,0,0,1-1.616-1.4l-.456-3.058h9.519c6.079,0,7.834,2.46,7.834,6.712V24.577h-3.2c-.878,0-1.193-.21-1.44-.913l-.351-1.124h-.141c-.842,1.51-2.6,2.355-4.953,2.355H40.985c-3.689,0-5.936-1.546-5.936-5.2Zm9.168,2.284c2.529,0,3.654-.842,3.654-2.635V16.849h-5.8c-1.054,0-1.475.351-1.475,1.336V19.2c0,.983.421,1.369,1.475,1.369Z" transform="translate(29.987 4.917)" fill="#006ceb"/>
    <path id="Path_42006" data-name="Path 42006" d="M52.829,2.055v8.537h.141c.737-1.266,2.318-2,4.5-2h2.423c4.533,0,7.274,2.529,7.274,7.237v4.988c0,4.533-2.566,7.239-7.274,7.239H57.4c-2.388,0-4.145-.844-4.988-2.355h-.141l-.351,1.124c-.247.7-.562.913-1.44.913h-3.2V2.055Zm0,18.48c0,2.214,1.019,3.021,3.232,3.021h2.282c2.214,0,3.268-.807,3.268-3.021V16.109c0-2.214-1.054-3.023-3.268-3.023H56.061c-2.214,0-3.232.809-3.232,3.023Z" transform="translate(40.451 1.758)" fill="#006ceb"/>
    <path id="Path_42007" data-name="Path 42007" d="M73.774,2.586c5.865,0,8.818,2.6,8.818,7.693v1.4c.071,5.06-2.952,7.7-8.818,7.7h-8.01v7.9H60V2.586Zm-8.01,4.672v7.448H73.6c2.319,0,3.232-.88,3.232-2.917V10.173c0-2.073-.948-2.915-3.232-2.915Z" transform="translate(51.336 2.213)" fill="#fd8600"/>
    <path id="Path_42008" data-name="Path 42008" d="M73.5,18.289c0-3.513,2-5.268,5.936-5.268h6.886V12c.035-1.3-.562-1.791-1.828-1.791h-7.9a1.407,1.407,0,0,1-1.616-1.4L74.52,5.747h9.519c6.079,0,7.834,2.46,7.834,6.712V24.577h-3.2c-.88,0-1.195-.21-1.442-.913l-.351-1.124h-.141c-.842,1.51-2.6,2.355-4.953,2.355H79.437c-3.689,0-5.936-1.546-5.936-5.2Zm9.168,2.284c2.529,0,3.654-.842,3.654-2.635V16.849h-5.8c-1.054,0-1.475.351-1.475,1.336V19.2c0,.983.421,1.369,1.475,1.369Z" transform="translate(62.886 4.917)" fill="#fd8600"/>
    <path id="Path_42009" data-name="Path 42009" d="M85.731,1.885h5.762v4.6H85.731Zm.106,7.168h5.55v18.83h-5.55Z" transform="translate(73.349 1.613)" fill="#fd8600"/>
    <path id="Path_42010" data-name="Path 42010" d="M101.555,20.116a.7.7,0,0,0,.774-.774v-.28c0-.527-.212-.739-.774-.913L95.2,16.462c-2.915-.772-4.355-2.529-4.355-5.27V10.42c0-2.741,2.141-4.672,5.233-4.672h11.1L106.754,8.8a1.436,1.436,0,0,1-1.651,1.4H97.094a.683.683,0,0,0-.739.739v.245c0,.492.212.7.739.842l6.428,1.722c2.986.809,4.357,2.425,4.357,5.2v1.089c0,2.705-2.073,4.531-5.2,4.531H90.559l.421-3.056a1.436,1.436,0,0,1,1.651-1.4Z" transform="translate(77.48 4.918)" fill="#fd8600"/>
    <path id="Path_42011" data-name="Path 42011" d="M101.237,18.289c0-3.513,2-5.268,5.936-5.268h6.886V12c.035-1.3-.562-1.791-1.828-1.791h-7.9a1.406,1.406,0,0,1-1.616-1.4l-.456-3.058h9.519c6.079,0,7.834,2.46,7.834,6.712V24.577h-3.2c-.878,0-1.193-.21-1.44-.913l-.351-1.124h-.141c-.842,1.51-2.6,2.355-4.953,2.355h-2.355c-3.689,0-5.936-1.546-5.936-5.2Zm9.168,2.284c2.529,0,3.654-.842,3.654-2.635V16.849h-5.8c-1.054,0-1.475.351-1.475,1.336V19.2c0,.983.421,1.369,1.475,1.369Z" transform="translate(86.616 4.917)" fill="#fd8600"/>
    <path id="Path_42012" data-name="Path 42012" d="M21.684,7.01l0,.007c-.013.072-.028.139-.043.2s-.035.134-.05.195l-.033.106c-.019.058-.037.109-.054.158-.011.032-.024.063-.033.091-.046.109-.076.171-.076.171a10.578,10.578,0,0,1-2.327,3.117c-.059.059-.119.121-.18.178-.321.317-.625.6-.878.829l-.113.1c-.043.039-.084.076-.122.108-.019.019-.037.035-.054.05l-.065.056-.039.035-.048.039c-.017.017-.035.03-.05.045s-.048.041-.069.059c-.048.041-.084.071-.109.091l-.017.013-.011.009-.007.007L13.752,9.043v3.464H6.127l7.292-7.3.43-.429a5.728,5.728,0,0,1,3.856-1.483,5.541,5.541,0,0,1,.612.033A5.721,5.721,0,0,1,21.345,4.59h0l.006,0,0,.006a.145.145,0,0,1,.02.037,3.7,3.7,0,0,1,.161.384l.03.082c.019.059.037.119.054.176a3.877,3.877,0,0,1,.065,1.733" transform="translate(5.242 2.818)" fill="#002e89"/>
    <path id="Path_42013" data-name="Path 42013" d="M3.3,9.447l-.082.084c-.258.254-.475.466-.685.668.321-.314.572-.559.766-.752" transform="translate(2.165 8.083)" fill="#29bbfd"/>
    <path id="Path_42014" data-name="Path 42014" d="M5.077,9.711a17.158,17.158,0,0,0-2.843,2.618A13.815,13.815,0,0,1,5.077,9.711" transform="translate(1.911 8.309)" fill="#0b89fd"/>
    <path id="Path_42015" data-name="Path 42015" d="M16.369,9.612a25.878,25.878,0,0,1-3.245,3.435l-.022.019-.952-.989.009-.007.011-.007.015-.015c.026-.02.061-.05.109-.091l.071-.059a.5.5,0,0,0,.048-.043l.048-.041.041-.033c.019-.019.041-.035.063-.058s.037-.032.056-.048c.039-.033.08-.069.122-.108l.111-.1c.254-.228.559-.51.88-.828l.178-.18a11.159,11.159,0,0,0,2.327-3.116s.032-.061.076-.173c.011-.026.022-.058.035-.091s.035-.1.052-.158c.011-.032.024-.069.033-.106.017-.061.035-.124.05-.193s.032-.132.045-.2l0-.007a3.833,3.833,0,0,0-.067-1.735,1.7,1.7,0,0,0-.054-.174l-.028-.082a3.336,3.336,0,0,0-.191-.429l.006,0,0,0a5.168,5.168,0,0,1,.6.572,3.979,3.979,0,0,1,.523,1.98,4.422,4.422,0,0,1-.959,3.062" transform="translate(10.394 3.416)" fill="#1c0353"/>
    <path id="Path_42016" data-name="Path 42016" d="M17.071,9.679l-7.478,7.5-.284.286a5.763,5.763,0,0,1-7.385.41v0a3.829,3.829,0,0,1,.007-4.01s.061-.121.193-.33a.385.385,0,0,1,.032-.052c.02-.033.041-.067.063-.1s.037-.061.059-.091.037-.058.056-.085l.054-.08c.111-.16.243-.341.4-.538.024-.033.052-.069.078-.1s.072-.089.108-.134A17.082,17.082,0,0,1,5.813,9.738L5.9,9.679l3.522,3.494V9.679Z" transform="translate(1.175 8.281)" fill="#002e89"/>
    <path id="Path_42017" data-name="Path 42017" d="M17.364,4.468a.694.694,0,0,1,.006.982L7.159,15.809,6.1,16.878l-.03.032-.026.028c-.037.035-.091.091-.173.174q-.031.033-.067.067l-.037.039c-.037.039-.082.083-.128.13s-.069.067-.1.1-.052.052-.078.078-.05.048-.076.074c-.2.2-.507.488-.787.764l-.622.61c-.091.089-.18.178-.263.267C.685,22.445,2.4,25.4,2.585,25.7l.015.022.037.054a6,6,0,0,1-.442-.455l0-.006A9.342,9.342,0,0,1,1.3,23.926l-.006-.015A13.351,13.351,0,0,1,.169,16.019a14.932,14.932,0,0,1,4.6-8.547c.176-.167.349-.336.523-.508L12.074.2a.7.7,0,0,1,.978,0Z" transform="translate(0 0)" fill="#006ceb"/>
    <path id="Path_42018" data-name="Path 42018" d="M6.18,10.178l-.084.059a17.158,17.158,0,0,0-2.843,2.618c-.035.045-.071.091-.106.134s-.054.067-.08.1c-.141.174-.275.354-.4.538l-.054.08-.056.085c-.02.03-.041.061-.059.091s-.043.065-.063.1l-.032.052c-.132.21-.191.33-.191.33a3.831,3.831,0,0,0-.009,4.01,5.373,5.373,0,0,1-.462-.382l-.037-.054-.015-.022c-.189-.3-1.9-3.253,1.13-6.452.084-.089.173-.178.263-.267l.622-.612c.28-.275.585-.566.787-.763.026-.026.052-.052.076-.074s.052-.054.078-.08l.1-.1c.046-.048.091-.091.128-.13L4.918,9.4l.067-.067c.082-.084.135-.141.173-.176l.026-.026.03-.032Z" transform="translate(0.891 7.782)" fill="#1c0353"/>
    <path id="Path_42019" data-name="Path 42019" d="M20.883,20.51s-2.37,2.577-3.6,3.661l-5.294,5.255a.694.694,0,0,1-.976,0L6.638,25.119a.7.7,0,0,1,0-.987l9.575-9.586c.21-.208.418-.416.627-.622q.576-.565,1.16-1.126l.02-.017a25.9,25.9,0,0,0,3.247-3.437,4.418,4.418,0,0,0,.959-3.06A3.98,3.98,0,0,0,21.7,4.3c.095.1.182.2.267.31s.161.212.234.319l.019.028c.069.1.135.212.2.325a10.874,10.874,0,0,1,1.683,5.472,15.318,15.318,0,0,1-3.223,9.753" transform="translate(5.502 3.682)" fill="#006ceb"/>
  </g>
</svg>
