<svg xmlns="http://www.w3.org/2000/svg" width="28.198" height="31.227" viewBox="0 0 28.198 31.227">
  <g id="Group_46484" data-name="Group 46484" transform="translate(-8475.44 -1930.944)">
    <path id="Path_42570" data-name="Path 42570" d="M998.737,129.961c.06,0,.121.007.174.007q1.941,0,2.492,0a3.715,3.715,0,0,1,3.628,3.226,5.115,5.115,0,0,1,.028.614q0,2.8,0,5.591a1.419,1.419,0,0,1-.044.414.736.736,0,0,1-1.4-.024,1.866,1.866,0,0,1-.034-.445q0-2.819,0-5.638a2.213,2.213,0,0,0-2.233-2.259q-1.3-.01-2.6,0c-.015,0-.017.005-.006.015q.8.806,1.6,1.6a1.537,1.537,0,0,1,.173.206.736.736,0,0,1-1.165.894q-1.47-1.465-2.932-2.94a.74.74,0,0,1,.015-1.07l2.943-2.937a.739.739,0,0,1,1.241.316.765.765,0,0,1-.246.779q-.814.821-1.636,1.634C998.72,129.958,998.722,129.962,998.737,129.961Z" transform="translate(7498.527 1804)" fill="#363636" stroke="#363636" stroke-width="0.1"/>
    <path id="Path_42571" data-name="Path 42571" d="M373.338,194.717a2.226,2.226,0,0,1-1.8-1.759,3.445,3.445,0,0,1-.04-.613q0-7.187,0-14.374a3.754,3.754,0,0,1,.037-.614,2.218,2.218,0,0,1,2.2-1.824q6.63,0,13.26,0a2.214,2.214,0,0,1,2.219,1.894,4.627,4.627,0,0,1,.028.614q0,4.259,0,8.517a.8.8,0,0,1-.173.526.736.736,0,0,1-1.258-.214,1.372,1.372,0,0,1-.045-.417q0-4.2,0-8.407a1.984,1.984,0,0,0-.048-.53c-.143-.449-.512-.508-.953-.508H374.041a2.168,2.168,0,0,0-.573.049c-.405.133-.494.474-.494.873q0,7.277,0,14.555a.744.744,0,0,0,.58.769,4.008,4.008,0,0,0,.558.022c2.359.005,3.971-.028,5.437,0a1.075,1.075,0,0,1,.353.055.734.734,0,0,1-.2,1.409,5.216,5.216,0,0,1-.528.005h-5.223A4.175,4.175,0,0,1,373.338,194.717Z" transform="translate(8103.994 1756.959)" fill="#363636" stroke="#363636" stroke-width="0.1"/>
    <rect id="Rectangle_27393" data-name="Rectangle 27393" width="8.856" height="1.476" rx="0.738" transform="translate(8479.937 1936.917) rotate(0.1)" fill="#363636" stroke="#363636" stroke-width="0.1"/>
    <rect id="Rectangle_27394" data-name="Rectangle 27394" width="8.856" height="1.476" rx="0.738" transform="translate(8479.934 1941.372) rotate(-0.1)" fill="#363636" stroke="#363636" stroke-width="0.1"/>
    <rect id="Rectangle_27395" data-name="Rectangle 27395" width="4.414" height="1.471" rx="0.736" transform="translate(8479.937 1945.8)" fill="#363636" stroke="#363636" stroke-width="0.1"/>
    <path id="Path_42572" data-name="Path 42572" d="M708.5,621.963a2.17,2.17,0,0,1-.714-1.289,4.24,4.24,0,0,1-.032-.614q0-5.028,0-10.056a2.222,2.222,0,0,1,1.865-2.222,4.136,4.136,0,0,1,.614-.032h13.012a2.222,2.222,0,0,1,2.216,1.82,3.562,3.562,0,0,1,.039.613v9.865a4.587,4.587,0,0,1-.028.614,2.228,2.228,0,0,1-1.984,1.864q-.136.014-.615.014H710.129A2.277,2.277,0,0,1,708.5,621.963Zm.745-9.782H724c.01,0,.015,0,.015-.014q0-1.093,0-2.186a.728.728,0,0,0-.3-.605,1.083,1.083,0,0,0-.712-.151H710.1a.774.774,0,0,0-.827.5,1.633,1.633,0,0,0-.047.469q0,.987,0,1.971A.014.014,0,0,0,709.242,612.181Zm.018,8.336a.742.742,0,0,0,.722.537h13.135a1.354,1.354,0,0,0,.411-.045.757.757,0,0,0,.493-.771q0-3.281,0-6.563a.014.014,0,0,0-.016-.016h-13.59c-.28,0-.779.014-1.17,0a.013.013,0,0,0-.015.014q0,3.223,0,6.445A1.627,1.627,0,0,0,709.261,620.518Z" transform="translate(7778.091 1338.048)" fill="#363636" stroke="#363636" stroke-width="0.1"/>
    <path id="Path_42575" data-name="Path 42575" d="M377.8,854.136q.036-.036-.015-.036-1.339-.01-2.663-.009a3.718,3.718,0,0,1-3.6-3.213,4.989,4.989,0,0,1-.03-.614q0-.586,0-1.171a1.443,1.443,0,0,1,.045-.42.737.737,0,0,1,1.123-.352.721.721,0,0,1,.309.631q0,.687,0,1.375a2.189,2.189,0,0,0,.941,1.882,2.4,2.4,0,0,0,1.513.4h2.384a.01.01,0,0,0,.009-.006.01.01,0,0,0,0-.011l-1.668-1.677a.736.736,0,0,1,.894-1.161,3.554,3.554,0,0,1,.375.346q1.349,1.344,2.694,2.694a.749.749,0,0,1,.024,1.088q-1.479,1.48-2.959,2.959a.737.737,0,1,1-1.039-1.046Q376.981,854.95,377.8,854.136Z" transform="translate(8104 1105.012)" fill="#363636" stroke="#363636" stroke-width="0.1"/>
  </g>
</svg>
